<svg width="1364" height="322" viewBox="0 0 1364 322" fill="none" xmlns="http://www.w3.org/2000/svg">
<path d="M2 319.5H638.5C640.709 319.5 642.5 317.709 642.5 315.5V241C642.5 238.791 644.291 237 646.5 237H797C799.209 237 801 235.209 801 233V6.00001C801 3.79087 802.791 2 805 2H959C961.209 2 963 3.79086 963 6V315.5C963 317.709 964.791 319.5 967 319.5H1040.5C1042.71 319.5 1044.5 317.709 1044.5 315.5V162.5C1044.5 160.291 1046.29 158.5 1048.5 158.5H1199C1201.21 158.5 1203 156.709 1203 154.5V6C1203 3.79086 1204.79 2 1207 2H1361.5" stroke="#003049" stroke-width="4" stroke-linecap="round"/>
<rect x="674" y="265" width="16" height="32" rx="4" fill="#003049"/>
<rect x="754" y="265" width="16" height="32" rx="4" fill="#003049"/>
<rect x="836" y="23" width="16" height="32" rx="4" fill="#003049"/>
<rect x="916" y="23" width="16" height="32" rx="4" fill="#003049"/>
<rect x="916" y="103" width="16" height="32" rx="4" fill="#003049"/>
<rect x="836" y="103" width="16" height="32" rx="4" fill="#003049"/>
<rect x="836" y="183" width="16" height="32" rx="4" fill="#003049"/>
<rect x="836" y="265" width="16" height="32" rx="4" fill="#003049"/>
<rect x="916" y="265" width="16" height="32" rx="4" fill="#003049"/>
<rect x="1077" y="183" width="16" height="32" rx="4" fill="#003049"/>
<rect x="1077" y="265" width="16" height="32" rx="4" fill="#003049"/>
<rect x="1157" y="183" width="16" height="32" rx="4" fill="#003049"/>
<rect x="1236" y="183" width="16" height="32" rx="4" fill="#003049"/>
<rect x="1236" y="23" width="16" height="32" rx="4" fill="#003049"/>
<rect x="1236" y="103" width="16" height="32" rx="4" fill="#003049"/>
<rect x="1316" y="23" width="16" height="32" rx="4" fill="#003049"/>
<rect x="916" y="183" width="16" height="32" rx="4" fill="#003049"/>
</svg>
